<svg id="Слой_1" xmlns="http://www.w3.org/2000/svg" viewBox="0 0 21 21"><style>.st0{fill:#fff}</style><path class="st0" d="M16 13.9c-.7-.7-1.5-.7-2.2 0l-1.6 1.6c-.1.1-.3.2-.4.1-.3-.2-.7-.3-1-.5C9.2 14 8 12.8 6.9 11.5c-.6-.7-1.1-1.5-1.4-2.3-.1-.1-.1-.3 0-.4L7 7.3c.7-.7.7-1.6 0-2.3-.3-.4-.7-.8-1.1-1.2-.5-.4-.9-.9-1.3-1.3-.7-.7-1.5-.7-2.2 0L.8 4.1c-.5.4-.7 1-.8 1.7-.1 1.1.2 2.1.6 3.1.8 2.1 1.9 3.9 3.4 5.6 1.9 2.3 4.2 4.1 6.9 5.4 1.2.6 2.5 1 3.8 1.1.9.1 1.8-.2 2.4-.9.4-.5.9-1 1.4-1.4.7-.7.7-1.6 0-2.3L16 13.9zm-.8-3.5l1.6-.3c-.3-1.5-1-2.8-2-3.9a6.94 6.94 0 0 0-4.1-2l-.2 1.6c1.2.2 2.3.7 3.2 1.6.7.8 1.3 1.9 1.5 3zm2.5-7c-1.9-1.9-4.2-3-6.8-3.4l-.2 1.6c2.2.3 4.3 1.3 5.9 2.9 1.5 1.5 2.5 3.5 2.9 5.6l1.5-.2c-.4-2.5-1.6-4.7-3.3-6.5z"/></svg>